<?xml version="1.0" encoding="UTF-8"?>
<!-- Generator: visioncortex VTracer 0.6.4 -->
<svg version="1.1" xmlns="http://www.w3.org/2000/svg" width="1080" height="1080">
<path d="M0 0 C1.17033279 -0.00852997 2.34066559 -0.01705994 3.54646301 -0.02584839 C4.81671326 -0.02494202 6.0869635 -0.02403564 7.39570618 -0.02310181 C8.75804002 -0.02909167 10.12037049 -0.03589827 11.48269653 -0.04345703 C15.17306303 -0.0610817 18.8633367 -0.06581103 22.55374122 -0.0670886 C24.86382806 -0.06851323 27.17389153 -0.07278881 29.48397255 -0.07808304 C37.55612808 -0.09657451 45.62821767 -0.10475512 53.70039368 -0.10317993 C61.20305619 -0.10198008 68.70543031 -0.12305372 76.20801991 -0.15466726 C82.66602249 -0.18090111 89.12393133 -0.1915442 95.58198673 -0.19026911 C99.43158892 -0.18976139 103.28093491 -0.19533835 107.13048363 -0.21662521 C110.75612389 -0.23612702 114.38126678 -0.23605173 118.00692558 -0.22159195 C119.95497449 -0.21853581 121.90302409 -0.23509807 123.85099792 -0.25247192 C131.68137021 -0.19701174 137.8955 1.06153938 145.03755188 4.26742554 C145.93408824 4.6660058 146.8306246 5.06458607 147.75432873 5.47524452 C161.39611427 11.73289614 173.31988221 22.85138984 180.03755188 36.26742554 C180.52739563 37.23551147 181.01723938 38.20359741 181.52192688 39.20101929 C186.22250954 49.29273412 188.70788505 59.8761425 191.37348938 70.64291382 C192.22846454 74.02195169 193.18174935 77.36023567 194.16255188 80.70492554 C195.73857162 86.12046661 197.13055127 91.56973936 198.47212219 97.04672241 C199.68607123 101.96333297 201.02622638 106.83445153 202.41255188 111.70492554 C204.83715958 120.24178244 206.89910173 128.85511537 208.89448547 137.5015564 C210.11825798 142.73546637 211.49056014 147.81141726 213.25190735 152.88827515 C214.89610104 157.86735143 216.1858181 162.95285095 217.53755188 168.01742554 C217.98034485 169.65324585 217.98034485 169.65324585 218.43208313 171.32211304 C219.90811167 176.82308284 221.29794316 182.3280104 222.54927063 187.88461304 C223.91206068 193.88413612 225.57442654 199.7539028 227.35005188 205.64242554 C229.99778545 214.5659314 232.45190756 223.5187245 234.76289368 232.53475952 C236.62981314 239.78742873 238.62352689 246.99888751 240.66255188 254.20492554 C242.92985048 262.22847359 245.08870675 270.25947825 247.07270813 278.35726929 C248.20688373 282.98398562 249.39815058 287.59539654 250.60005188 292.20492554 C250.79808411 292.97433472 250.99611633 293.7437439 251.20014954 294.53646851 C252.1966228 298.34215706 253.28767925 302.07457855 254.56880188 305.79476929 C256.03626301 310.10827233 257.05078343 314.43544166 257.97505188 318.89242554 C265.15809238 352.08361647 274.64915257 385.63111753 304.72505188 405.07992554 C306.48447736 406.1612113 308.25604593 407.2229192 310.03755188 408.26742554 C311.12423157 408.9390271 312.21091125 409.61062866 313.33052063 410.30258179 C317.26528798 412.53614561 321.30422938 413.74692991 325.66255188 414.89242554 C326.44944397 415.10407349 327.23633606 415.31572144 328.04707336 415.53378296 C341.16390823 418.96606366 353.19320483 420.46369256 366.47505188 417.45492554 C367.72391174 417.17926758 367.72391174 417.17926758 368.9980011 416.89804077 C378.48990342 414.76779279 386.70705014 412.40342083 395.03755188 407.26742554 C395.97212219 406.69379272 396.9066925 406.12015991 397.86958313 405.52914429 C401.63775962 403.17340343 405.29933207 400.87229639 408.74067688 398.05258179 C411.03755188 396.26742554 411.03755188 396.26742554 413.03755188 396.26742554 C413.26442688 395.71570679 413.49130188 395.16398804 413.72505188 394.59555054 C415.42481114 391.58050137 417.58560004 389.45512184 420.03755188 387.01742554 C420.92442688 386.12539429 421.81130188 385.23336304 422.72505188 384.31430054 C425.03755188 382.26742554 425.03755188 382.26742554 427.03755188 382.26742554 C427.25153625 381.72344116 427.46552063 381.17945679 427.68598938 380.61898804 C429.51103178 377.44362525 432.03552075 375.14582216 434.66255188 372.64242554 C439.3836192 368.05916849 443.57340012 363.32059119 447.51411438 358.03305054 C448.01684875 357.45039429 448.51958313 356.86773804 449.03755188 356.26742554 C449.69755188 356.26742554 450.35755188 356.26742554 451.03755188 356.26742554 C451.36755188 355.27742554 451.69755188 354.28742554 452.03755188 353.26742554 C453.65733744 351.55516087 455.33126272 349.89350452 457.03755188 348.26742554 C467.01099336 338.44092956 467.01099336 338.44092956 475.97505188 327.70492554 C477.83064841 325.51194782 479.67013289 323.80910951 481.85005188 321.95492554 C486.01832085 318.38873986 489.51717458 314.46174894 493.03755188 310.26742554 C494.30294938 308.76283705 495.57366214 307.26270029 496.85005188 305.76742554 C497.41337219 305.09711304 497.9766925 304.42680054 498.55708313 303.73617554 C500.03755188 302.26742554 500.03755188 302.26742554 502.03755188 302.26742554 C502.25282532 301.68992554 502.46809875 301.11242554 502.68989563 300.51742554 C504.49839677 297.49801493 506.66212687 296.18852082 509.60005188 294.26742554 C510.59134094 293.60742554 511.58263 292.94742554 512.60395813 292.26742554 C513.73704407 291.60742554 514.87013 290.94742554 516.03755188 290.26742554 C516.57418551 289.91981926 517.11081915 289.57221298 517.66371441 289.21407318 C525.85360458 284.68488577 535.25573652 285.7273042 544.32002258 285.78500366 C546.28215303 285.78281569 548.24428216 285.77881573 550.20640564 285.77314758 C554.41993296 285.76460384 558.63320513 285.76833657 562.84671974 285.78157043 C569.51720079 285.80196374 576.18742655 285.79190467 582.85791016 285.77731323 C598.22462994 285.7483183 613.591274 285.75899625 628.95800781 285.7700119 C643.03835712 285.77969864 657.11857244 285.78090535 671.19889897 285.75013113 C677.82162087 285.73679758 684.44395712 285.74266098 691.06665576 285.7634964 C695.1972269 285.77251707 699.3276512 285.76497697 703.45820999 285.75308418 C705.36406266 285.75096336 707.26993767 285.75561586 709.17575264 285.76778984 C727.75168828 285.87969739 740.13845074 282.05515726 753.72236633 268.82699585 C759.35215568 263.21740384 764.62505127 257.33254723 769.73286438 251.24789429 C773.27009379 247.09997729 776.96264143 243.51223399 781.12348938 239.99398804 C783.5593673 237.79672673 785.58093675 235.36444724 787.65864563 232.83383179 C789.55415394 230.68057731 791.77884043 229.02420111 794.03755188 227.26742554 C794.69755188 226.27742554 795.35755188 225.28742554 796.03755188 224.26742554 C796.69755188 224.26742554 797.35755188 224.26742554 798.03755188 224.26742554 C798.27087219 223.70539429 798.5041925 223.14336304 798.74458313 222.56430054 C800.35692264 219.70008412 802.35690808 217.79490533 804.72505188 215.51742554 C807.80845292 212.50028669 810.79896714 209.48600836 813.60005188 206.20492554 C817.50337536 201.64643428 821.76432076 197.47591074 826.03755188 193.26742554 C826.90380188 192.38055054 827.77005188 191.49367554 828.66255188 190.57992554 C829.44630188 189.81680054 830.23005188 189.05367554 831.03755188 188.26742554 C831.48743469 187.80980835 831.9373175 187.35219116 832.40083313 186.88070679 C843.79878506 176.10497556 857.96361112 172.93816558 873.16255188 173.00180054 C874.7038678 172.99893036 874.7038678 172.99893036 876.27632141 172.9960022 C878.43436429 172.99464994 880.59241557 172.99827881 882.7504425 173.00668335 C886.02862553 173.01739637 889.30626063 173.00675501 892.58442688 172.99398804 C894.69380307 172.9953098 896.80317893 172.99787255 898.91255188 173.00180054 C899.87950989 172.99775208 900.8464679 172.99370361 901.84272766 172.98953247 C909.55163069 173.04190455 918.07692999 173.32280829 924.66255188 177.76742554 C925.3148175 178.19023804 925.96708313 178.61305054 926.63911438 179.04867554 C927.10059875 179.45086304 927.56208313 179.85305054 928.03755188 180.26742554 C928.03755188 180.92742554 928.03755188 181.58742554 928.03755188 182.26742554 C928.61505188 182.47367554 929.19255188 182.67992554 929.78755188 182.89242554 C935.19113172 186.19461322 936.76231659 191.85109733 938.52192688 197.60726929 C939.82357637 204.32259734 938.58685339 210.259362 936.97505188 216.76742554 C936.64658264 218.11937012 936.64658264 218.11937012 936.31147766 219.49862671 C933.29695858 231.61183399 929.94088009 243.83186583 925.43989563 255.48617554 C924.06012817 259.08420551 923.10649725 262.69972679 922.22505188 266.45492554 C920.62031087 273.10187681 918.84536552 279.69033932 916.97505188 286.26742554 C916.60706482 287.57489746 916.60706482 287.57489746 916.23164368 288.90878296 C915.11128092 292.82048808 913.92998114 296.65825117 912.46333313 300.45492554 C911.0935695 304.0046855 910.15009057 307.55688173 909.28755188 311.26742554 C907.55715434 318.47492278 905.55352882 325.59055849 903.47505188 332.70492554 C903.18211243 333.71103882 902.88917297 334.7171521 902.58735657 335.75375366 C901.30175626 340.12798333 899.98523835 344.47789837 898.50630188 348.79086304 C896.76313687 353.94198768 895.437678 359.18656757 894.10005188 364.45492554 C888.22160784 387.26416228 888.22160784 387.26416228 885.52973938 394.18539429 C884.09692649 397.94903499 883.18382238 401.69726755 882.35005188 405.64242554 C880.68689298 413.12284343 878.52366986 420.39712705 876.22505188 427.70492554 C873.39860307 436.69907061 870.76595517 445.71668679 868.35005188 454.82992554 C866.38835786 462.2227741 864.42400227 469.61031132 862.28755188 476.95492554 C861.92145813 478.21691772 861.55536438 479.47890991 861.17817688 480.77914429 C859.9981477 484.38793217 858.55447599 487.78810086 857.03755188 491.26742554 C856.02670793 493.90171569 855.06648208 496.55407295 854.10005188 499.20492554 C852.05305807 504.75392812 849.85977696 510.05716385 847.03755188 515.26742554 C846.37755188 515.26742554 845.71755188 515.26742554 845.03755188 515.26742554 C844.65083313 516.35797241 844.65083313 516.35797241 844.25630188 517.47055054 C838.85195228 529.87284001 826.51242851 538.91725109 815.03755188 545.26742554 C814.34403625 545.70828491 813.65052063 546.14914429 812.93598938 546.60336304 C797.76143498 555.98089665 779.59979275 555.41668015 762.41873169 555.40545654 C760.51768122 555.40787708 758.61663128 555.41074011 756.71558207 555.41400588 C751.50696323 555.42173248 746.29835759 555.42337686 741.08973372 555.42405701 C735.46667878 555.4259014 729.84363148 555.43351069 724.22058105 555.4405365 C714.48174956 555.45204719 704.74291978 555.4602991 695.00408363 555.46665573 C679.61448656 555.47699126 664.224911 555.49755578 648.83532715 555.51977539 C643.56865032 555.5272544 638.30197339 555.53466818 633.03529644 555.54206276 C631.71924669 555.54391333 630.40319695 555.54576389 629.0472669 555.54767054 C614.07633867 555.5686314 599.10540791 555.58743434 584.13447571 555.60531616 C583.45059225 555.60613584 582.76670878 555.60695552 582.06210158 555.60780004 C566.09935106 555.62689313 550.13660068 555.64385545 534.17384338 555.65615845 C533.48682022 555.65668811 532.79979706 555.65721778 532.09195502 555.6577635 C526.55359719 555.66201548 521.0152393 555.66619159 515.47688139 555.6703483 C491.99944162 555.68802937 468.52204173 555.71697446 445.04462737 555.75679743 C430.98825016 555.78021308 416.9319263 555.79419341 402.87552943 555.79612507 C393.24993582 555.79823128 383.62439535 555.81113389 373.99882559 555.83260439 C368.44255175 555.84465357 362.88638343 555.85177122 357.3300972 555.84589195 C352.24570073 555.84060814 347.1615198 555.84903367 342.07715937 555.86844833 C340.23616711 555.8730341 338.39515388 555.87253946 336.55416582 555.86649995 C334.05416602 555.85902928 331.55489168 555.86994691 329.05494404 555.88545799 C328.33819271 555.87889545 327.62144137 555.87233291 326.8829703 555.8655715 C321.30361758 555.93126759 316.40164789 557.06637064 312.22505188 560.95492554 C311.83317688 561.38805054 311.44130188 561.82117554 311.03755188 562.26742554 C310.37755188 562.26742554 309.71755188 562.26742554 309.03755188 562.26742554 C308.34980783 563.59001026 307.69043815 564.92729057 307.03755188 566.26742554 C306.50130188 567.33992554 305.96505188 568.41242554 305.41255188 569.51742554 C302.91223184 576.33648019 303.71542257 582.53325055 306.03755188 589.26742554 C307.75257421 590.70865666 307.75257421 590.70865666 310.03755188 591.26742554 C310.90273154 591.76764662 311.76791121 592.2678677 312.65930843 592.78324699 C316.64515613 594.53436698 320.06837874 594.70871916 324.33944702 594.70178223 C325.16794995 594.71216935 325.99645288 594.72255648 326.85006195 594.73325837 C329.64838239 594.76439609 332.4463554 594.77402119 335.24482727 594.78353882 C337.2885655 594.80095109 339.33229426 594.81950494 341.3760128 594.83909225 C347.06146574 594.88905665 352.74687475 594.91883411 358.43248248 594.94464636 C362.10487165 594.96289789 365.77718202 594.98676242 369.44952583 595.01251602 C417.22691945 595.34681215 465.00538812 595.30716099 512.78364563 595.25961304 C513.69146005 595.25871803 514.59927446 595.25782303 515.53459841 595.25690091 C553.25854185 595.21942422 590.98245869 595.16689517 628.70634269 595.09010266 C644.7493584 595.05773386 660.79236326 595.03687333 676.83540779 595.02583039 C686.62005801 595.018663 696.40459908 595.00215646 706.18920905 594.97302963 C712.82222477 594.95405649 719.45519701 594.94594374 726.08823966 594.9464346 C729.89986093 594.94637171 733.71131045 594.9414454 737.522892 594.92326736 C741.65385072 594.90367594 745.7844655 594.90745465 749.91546631 594.91339111 C751.1088351 594.90397047 752.30220388 594.89454983 753.53173536 594.88484371 C766.35526651 594.94652094 774.79408595 598.54003387 784.72505188 606.39242554 C791.26683649 614.52545505 794.36744782 622.78790701 793.68989563 633.22445679 C792.40404013 643.6641998 785.89055937 653.59519869 777.79145813 660.06039429 C768.08065793 667.16548835 758.84683021 670.99071514 747.03755188 673.26742554 C748.28629847 677.0136653 750.22752615 678.51400464 753.03755188 681.26742554 C763.37817639 693.65819125 768.62981743 705.7491271 772.03755188 721.26742554 C772.21262268 721.90091919 772.38769348 722.53441284 772.56806946 723.18710327 C777.17357505 743.59454641 770.83529972 764.78627227 759.99848938 781.94320679 C747.15356781 801.23585785 727.67390266 814.47553481 705.03755188 819.51742554 C686.5540959 822.41369357 668.65913088 819.8567071 652.03755188 811.26742554 C650.49067688 810.58680054 650.49067688 810.58680054 648.91255188 809.89242554 C644.59347007 807.45120538 640.85332688 804.42573206 637.03755188 801.26742554 C636.20610657 800.58422241 635.37466125 799.90101929 634.51802063 799.19711304 C618.54898905 785.50937168 608.22927994 765.16189974 606.03755188 744.26742554 C604.6296161 721.10930948 610.36646371 699.52313727 625.03755188 681.26742554 C625.58024719 680.58937866 626.1229425 679.91133179 626.68208313 679.21273804 C629.69741703 675.55912178 629.69741703 675.55912178 631.03755188 674.26742554 C631.69755188 674.26742554 632.35755188 674.26742554 633.03755188 674.26742554 C632.70755188 673.60742554 632.37755188 672.94742554 632.03755188 672.26742554 C561.41755188 672.26742554 490.79755188 672.26742554 418.03755188 672.26742554 C419.80102867 675.79437911 420.90054419 677.31227843 423.66255188 679.89242554 C425.57661438 681.68148804 425.57661438 681.68148804 427.03755188 683.26742554 C427.03755188 683.92742554 427.03755188 684.58742554 427.03755188 685.26742554 C427.69755188 685.26742554 428.35755188 685.26742554 429.03755188 685.26742554 C442.85064381 702.03757234 447.75408642 724.02643401 446.03755188 745.26742554 C444.12677254 760.76939342 437.21059656 774.76762332 428.03755188 787.26742554 C427.56446594 787.97769897 427.09138 788.68797241 426.60395813 789.41976929 C416.54811121 803.6885396 399.44135032 813.31577823 383.03755188 818.26742554 C381.85161438 818.62578491 380.66567688 818.98414429 379.44380188 819.35336304 C374.11758384 820.64974087 368.80614008 820.60989463 363.35005188 820.57992554 C361.74613586 820.57146606 361.74613586 820.57146606 360.1098175 820.56283569 C352.38835831 820.44417054 345.38807434 819.76118602 338.03755188 817.26742554 C337.40413879 817.05811401 336.77072571 816.84880249 336.11811829 816.63314819 C327.75990461 813.83519607 319.0052338 810.82817168 312.03755188 805.26742554 C312.03755188 804.60742554 312.03755188 803.94742554 312.03755188 803.26742554 C311.23704407 802.93678101 311.23704407 802.93678101 310.42036438 802.59945679 C307.20435288 800.80165364 304.61310872 798.4287933 301.91255188 795.95492554 C301.37501282 795.48119507 300.83747375 795.0074646 300.28364563 794.51937866 C297.16845549 791.67997219 295.23660072 789.33086882 294.03755188 785.26742554 C293.37755188 785.26742554 292.71755188 785.26742554 292.03755188 785.26742554 C286.79530677 779.17965702 283.7295614 771.74022789 281.03755188 764.26742554 C280.4439386 762.72441772 280.4439386 762.72441772 279.83833313 761.15023804 C274.27438003 744.24362969 274.65063274 722.86925444 281.03755188 706.26742554 C281.61569641 704.66254272 281.61569641 704.66254272 282.20552063 703.02523804 C285.84445844 693.58048684 291.2802177 686.02149281 297.61958313 678.21273804 C299.2211296 676.22213771 299.2211296 676.22213771 300.03755188 673.26742554 C298.69177063 673.08180054 298.69177063 673.08180054 297.31880188 672.89242554 C282.40376763 670.42713062 268.74863583 664.20543923 258.03755188 653.26742554 C258.03755188 652.60742554 258.03755188 651.94742554 258.03755188 651.26742554 C256.71755188 650.60742554 255.39755188 649.94742554 254.03755188 649.26742554 C254.03755188 648.60742554 254.03755188 647.94742554 254.03755188 647.26742554 C253.37755188 647.26742554 252.71755188 647.26742554 252.03755188 647.26742554 C250.50013257 645.34036557 249.10230636 643.43005008 247.72505188 641.39242554 C247.32205872 640.80179321 246.91906555 640.21116089 246.50386047 639.60263062 C235.89953685 623.79010213 231.26457373 606.89271771 234.85005188 587.82992554 C236.13193845 582.42253077 237.94805955 577.17438916 239.89692688 571.97445679 C245.41905231 556.00717901 240.70328669 538.47826425 234.75849915 523.2293396 C233.47910662 519.74772825 232.58180373 516.17027589 231.66255188 512.57992554 C231.34447571 511.35922363 231.34447571 511.35922363 231.01997375 510.11386108 C229.43087905 503.95729099 227.97671457 497.77290914 226.53755188 491.57992554 C224.96365051 484.81650286 223.15744624 478.24648843 220.98506165 471.6499939 C218.6324139 464.32464187 216.95977325 456.83674742 215.2023468 449.35116577 C213.37164581 441.57646117 211.32949398 433.92001883 209.03755188 426.26742554 C206.72483575 418.4059494 204.6011045 410.55934039 202.80317688 402.56430054 C201.15325423 395.45953156 199.1757555 388.43610517 197.25483704 381.40072632 C194.1363154 369.97327911 191.04065854 358.55435648 188.35005188 347.01742554 C186.48414043 339.02172672 184.37053409 331.1412405 182.03755188 323.26742554 C178.87333785 312.52875986 175.82885821 301.78255892 173.22505188 290.89242554 C173.01823792 290.03125122 172.81142395 289.1700769 172.5983429 288.2828064 C171.76109012 284.71012867 171.03551793 281.25083559 170.58833313 277.60336304 C170.17617482 274.23104193 170.17617482 274.23104193 168.6723175 271.20736694 C166.63702246 266.5849559 165.51700894 261.78887937 164.33052063 256.89242554 C164.08264297 255.89146851 163.83476532 254.89051147 163.57937622 253.85922241 C162.78899918 250.66330759 162.00666737 247.46549325 161.22505188 244.26742554 C160.20007872 240.10017288 159.17188827 235.9337182 158.14302063 231.76742554 C157.88860199 230.73529434 157.63418335 229.70316315 157.37205505 228.63975525 C154.69705781 217.82192709 151.87978973 207.04231873 149.03755188 196.26742554 C148.54559199 194.39959135 148.05364837 192.53175287 147.5617218 190.66390991 C146.74770397 187.57436418 145.93224442 184.48520452 145.11567688 181.39633179 C144.38902981 178.63610913 143.68899764 175.87086087 143.00630188 173.09945679 C142.17974506 169.82989129 141.26334213 166.61938103 140.28755188 163.39242554 C138.32526804 156.61494335 136.76678781 149.7764205 135.22505188 142.89242554 C132.79492588 132.09886877 129.87999232 121.52385212 126.70942688 110.92758179 C123.02372119 98.58215456 119.41341859 85.93871465 117.03755188 73.26742554 C113.93960062 72.36155955 111.17027402 72.1406678 107.94754028 72.13612366 C106.92010712 72.13211548 105.89267395 72.1281073 104.83410645 72.12397766 C103.15167595 72.12477074 103.15167595 72.12477074 101.43525696 72.12557983 C100.24944031 72.12210541 99.06362366 72.11863098 97.84187317 72.11505127 C95.26479372 72.1076963 92.68770794 72.10234954 90.1106205 72.0987606 C86.02898583 72.09283516 81.94743766 72.07627907 77.86584473 72.05741882 C76.46643167 72.05108164 75.06701856 72.04475601 73.6676054 72.03844166 C72.966815 72.03527585 72.2660246 72.03211004 71.54399812 72.02884829 C62.04536412 71.98684005 52.54677063 71.95381582 43.04804993 71.9414978 C36.63616607 71.93309754 30.22449692 71.91053414 23.81272048 71.87214214 C20.42371373 71.85244634 17.03502746 71.83995509 13.64595985 71.84497643 C9.85925287 71.84733318 6.07340959 71.82513169 2.28681946 71.79745483 C0.61957069 71.80735695 0.61957069 71.80735695 -1.08135986 71.81745911 C-10.9764275 71.6990103 -18.00419369 68.85965535 -25.24369812 62.12289429 C-27.8192651 59.34245267 -29.31036655 56.69396508 -30.96244812 53.26742554 C-31.48194031 52.22070679 -32.0014325 51.17398804 -32.53666687 50.09555054 C-34.30656559 45.91366059 -34.49887929 42.01763363 -34.46244812 37.51742554 C-34.4589032 36.72755249 -34.45535828 35.93767944 -34.45170593 35.12387085 C-34.25923318 28.30364059 -32.54917216 23.09975072 -28.96244812 17.26742554 C-28.36432312 16.17430054 -27.76619812 15.08117554 -27.14994812 13.95492554 C-20.51700939 5.80588653 -10.57843559 0.03501477 0 0 Z M340.03755188 715.26742554 C333.62730292 724.01988084 332.61221967 732.82578729 334.03755188 743.26742554 C336.0749859 750.12142507 340.18554666 756.11261204 346.03755188 760.26742554 C353.44530721 764.10216217 361.27004179 765.9531674 369.41645813 763.57211304 C374.5650283 761.49874637 379.43574578 758.55528994 383.03755188 754.26742554 C383.75202831 752.16409663 383.75202831 752.16409663 384.03755188 750.26742554 C384.69755188 750.26742554 385.35755188 750.26742554 386.03755188 750.26742554 C386.51192688 749.17430054 386.98630188 748.08117554 387.47505188 746.95492554 C387.74188782 746.34004272 388.00872375 745.72515991 388.28364563 745.09164429 C391.14414034 738.17013636 390.6917154 731.41110001 388.06489563 724.46273804 C384.34267523 716.50879179 378.93582496 711.9785152 371.03755188 708.26742554 C360.11750391 704.31721688 348.06699753 706.63748715 340.03755188 715.26742554 Z M670.78755188 712.74398804 C664.26422227 718.42277943 660.77014517 725.09486411 660.06880188 733.61117554 C660.02032461 737.73174364 660.83150214 741.34776388 662.03755188 745.26742554 C662.53255188 746.99992554 662.53255188 746.99992554 663.03755188 748.76742554 C665.83593836 754.78606581 671.72273363 759.66560025 677.60005188 762.50570679 C685.04960128 764.96173011 692.62803608 765.51483636 699.92817688 762.36117554 C708.49759958 757.91777118 713.71330801 753.49800038 717.03755188 744.26742554 C719.5082949 735.90491069 717.70811475 728.34716996 713.91255188 720.70492554 C709.78946237 713.6281608 703.91925392 710.13484937 696.21333313 707.81039429 C695.49532532 707.6312146 694.7773175 707.45203491 694.03755188 707.26742554 C693.24348938 707.05473022 692.44942688 706.84203491 691.63130188 706.62289429 C684.57253336 705.65550282 676.56380838 708.7728117 670.78755188 712.74398804 Z " fill="#FFFFFF" transform="translate(72.96244812011719,238.73257446289063)"/>
<path d="M0 0 C1.86785156 -0.04253906 1.86785156 -0.04253906 3.7734375 -0.0859375 C11.87774668 0.8839494 16.89092563 5.0647587 22.3125 10.875 C23.39733102 12.01271814 24.48452982 13.14818383 25.57421875 14.28125 C26.3480188 15.0858667 26.3480188 15.0858667 27.13745117 15.90673828 C29.16261976 17.90564914 31.39391656 19.61244408 33.625 21.375 C34.93240213 22.71527685 36.20645796 24.08926337 37.4375 25.5 C38.04207031 26.18320312 38.64664062 26.86640625 39.26953125 27.5703125 C40.625 29.375 40.625 29.375 40.625 31.375 C41.21925781 31.61347656 41.81351563 31.85195313 42.42578125 32.09765625 C45.09160288 33.64601091 46.16046457 35.22615147 47.8125 37.8125 C48.32167969 38.59496094 48.83085938 39.37742188 49.35546875 40.18359375 C52.66365369 45.8940299 52.57492126 52.72187426 50.94140625 59.00390625 C48.21613688 66.22982793 43.93859348 72.31105188 39.3125 78.4375 C37.14212359 82.21556265 36.9231035 85.0524993 36.625 89.375 C40.22002766 91.77168511 41.72028841 91.21779269 45.83984375 90.6953125 C49.06432171 90.32447492 52.25746254 90.03872857 55.5 89.875 C56.59054687 89.8028125 57.68109375 89.730625 58.8046875 89.65625 C69.02912224 91.57986553 76.59828995 99.78203331 83.5625 107 C84.38556641 107.83273438 85.20863281 108.66546875 86.05664062 109.5234375 C89.80244581 113.33911578 93.29509604 117.18969602 96.625 121.375 C97.40875 122.15875 98.1925 122.9425 99 123.75 C100.95832503 125.70832503 102.68585234 127.62333834 104.4375 129.75 C106.64128029 132.36628275 108.95334993 134.6012705 111.5625 136.8125 C114.34426251 139.17198357 116.76942487 141.59016289 119.125 144.375 C121.44475062 147.11556706 123.81884547 149.49670582 126.5625 151.8125 C130.42923119 155.07623217 133.6857284 158.70533816 136.9609375 162.5546875 C138.50879879 164.46623666 138.50879879 164.46623666 140.625 165.375 C140.625 166.035 140.625 166.695 140.625 167.375 C141.615 167.705 142.605 168.035 143.625 168.375 C143.625 169.035 143.625 169.695 143.625 170.375 C144.285 170.375 144.945 170.375 145.625 170.375 C146.181875 171.07625 146.73875 171.7775 147.3125 172.5 C149.16018944 174.79712741 150.6997198 176.35613279 152.9375 178.1875 C156.16691886 180.87868238 158.80745011 183.81053728 161.515625 187.015625 C164.74371599 190.62630455 168.22407827 193.98143992 171.71362305 197.33837891 C173.05362965 198.64785804 174.3439921 200.00775019 175.625 201.375 C175.625 202.035 175.625 202.695 175.625 203.375 C176.615 203.705 177.605 204.035 178.625 204.375 C181.77451622 209.09400758 183.3273241 214.3716113 183.09765625 220.0234375 C182.1909418 224.53452922 179.92882686 228.43381048 177.625 232.375 C176.965 232.375 176.305 232.375 175.625 232.375 C175.295 235.345 174.965 238.315 174.625 241.375 C180.26846519 241.13985562 183.04226218 239.62789897 187.3984375 236.12109375 C191.57457821 232.84612024 196.08717804 230.11553855 200.625 227.375 C201.4396875 226.86195313 202.254375 226.34890625 203.09375 225.8203125 C209.82651351 221.95115944 215.95627312 221.44857662 223.625 222.375 C226.9375 223.5 226.9375 223.5 229.625 225.375 C230.5221875 225.97828125 230.5221875 225.97828125 231.4375 226.59375 C236.38849195 230.07491621 240.55448585 234.16402971 244.7421875 238.51953125 C246.4963836 240.4395586 246.4963836 240.4395586 248.625 241.375 C248.625 242.035 248.625 242.695 248.625 243.375 C249.285 243.375 249.945 243.375 250.625 243.375 C252.46723254 245.20298848 254.08207254 247.18331792 255.75390625 249.16796875 C256.89411635 250.51289299 258.06255829 251.83531546 259.27734375 253.11328125 C264.61365041 258.80262601 267.69659385 265.41427196 268.25 273.25 C267.68363418 284.23406432 260.42441991 292.30626546 253.11328125 299.78125 C250.64313519 302.23949562 250.64313519 302.23949562 248.91796875 304.71875 C248.49128906 305.2653125 248.06460938 305.811875 247.625 306.375 C246.965 306.375 246.305 306.375 245.625 306.375 C245.36809891 306.95721817 245.11119781 307.53943634 244.84651184 308.13929749 C243.51308124 310.5798421 242.05191498 312.18886174 240.08081055 314.14624023 C239.35633224 314.87056747 238.63185394 315.59489471 237.88542175 316.34117126 C237.10209976 317.11417068 236.31877777 317.8871701 235.51171875 318.68359375 C234.30187065 319.88919701 234.30187065 319.88919701 233.06758118 321.11915588 C230.48721124 323.6883367 227.89998812 326.25049016 225.3125 328.8125 C223.58092158 330.53404403 221.84979645 332.25604412 220.11914062 333.97851562 C216.93468923 337.14663936 213.74767028 340.31212852 210.55737305 343.47436523 C209.24649083 344.77448487 207.93568942 346.074686 206.625 347.375 C206.11198837 347.88359558 205.59897675 348.39219116 205.07041931 348.91619873 C202.20346051 351.76829804 199.49586626 354.72416857 196.8125 357.75 C193.23950084 361.70998571 189.58033921 365.26528002 185.5 368.6875 C182.81610504 371.10300546 180.55796814 373.82844501 178.23046875 376.58203125 C176.23992186 378.80505077 173.99053535 380.5660612 171.625 382.375 C171.295 383.035 170.965 383.695 170.625 384.375 C169.965 384.375 169.305 384.375 168.625 384.375 C168.356875 384.973125 168.08875 385.57125 167.8125 386.1875 C166.62582594 388.37347854 165.52900887 389.78832594 163.625 391.375 C162.965 391.375 162.305 391.375 161.625 391.375 C161.39740997 391.9272525 161.16981995 392.479505 160.93533325 393.04849243 C159.23982018 396.05888996 157.10184403 398.15268863 154.65966797 400.59912109 C153.90309654 401.36094948 153.90309654 401.36094948 153.13124084 402.13816833 C151.46488038 403.81331884 149.79132321 405.48106012 148.1171875 407.1484375 C146.95064545 408.31632782 145.78440034 409.48451482 144.61843872 410.65298462 C142.17204365 413.10232797 139.72206988 415.54801963 137.26953125 417.99121094 C134.14261239 421.10678607 131.02469101 424.23118572 127.90945244 427.35843468 C125.50056842 429.77458853 123.08688784 432.18590568 120.67178726 434.59584427 C119.52140033 435.7449062 118.37247176 436.89543025 117.22509384 438.0474968 C95.56713272 459.7744584 95.56713272 459.7744584 80.98828125 460.5 C73.03650961 460.07941043 65.79349553 455.08074567 59.625 450.375 C59.625 449.715 59.625 449.055 59.625 448.375 C59.06039063 448.13418701 58.49578125 447.89337402 57.9140625 447.64526367 C53.11266946 444.98083876 49.47287848 440.54912091 45.625 436.6875 C44.72265625 435.80126953 43.8203125 434.91503906 42.890625 434.00195312 C35.6138872 426.73059753 30.52385524 420.79295881 30.375 410.125 C30.34921875 409.02671875 30.3234375 407.9284375 30.296875 406.796875 C30.97910955 399.68214321 34.41128892 394.9530966 39 389.8125 C39.94550211 388.72802986 40.89081561 387.64339526 41.8359375 386.55859375 C43.22991062 384.96019073 44.62834995 383.37134903 46.06225586 381.80859375 C48.79410698 378.74070293 50.24952877 376.63536711 50.4375 372.5 C50.48519531 371.71882813 50.53289062 370.93765625 50.58203125 370.1328125 C50.59621094 369.55273438 50.61039063 368.97265625 50.625 368.375 C45.7836759 368.0229037 42.5766514 368.17201596 38.1875 370.3125 C32.44607352 373.08933449 27.43048498 373.77578357 21.125 372.875 C14.08610295 369.85832984 8.7415633 364.90924441 3.96484375 359.0078125 C1.4946079 355.99743761 -1.34096951 353.33771804 -4.1875 350.6875 C-5.375 349.375 -5.375 349.375 -5.375 347.375 C-7.62547142 346.91180772 -7.62547142 346.91180772 -10.375 347.375 C-12.55195911 349.1545306 -14.35330235 350.83464534 -16.25 352.875 C-16.77956299 353.42526855 -17.30912598 353.97553711 -17.85473633 354.54248047 C-21.8310013 358.70322076 -25.63788796 362.99921293 -29.375 367.375 C-35.01584179 373.8170362 -40.87140986 379.94841477 -46.9921875 385.9296875 C-49.37354356 388.25854723 -49.37354356 388.25854723 -51.0703125 390.6953125 C-51.50085938 391.24960937 -51.93140625 391.80390625 -52.375 392.375 C-53.035 392.375 -53.695 392.375 -54.375 392.375 C-54.61605469 392.93316406 -54.85710937 393.49132812 -55.10546875 394.06640625 C-56.64386579 396.86392209 -58.53061964 398.95986915 -60.6875 401.3125 C-61.82638672 402.56353516 -61.82638672 402.56353516 -62.98828125 403.83984375 C-64.53659502 405.48445199 -66.10850614 407.10727749 -67.70703125 408.703125 C-71.12880728 412.12991095 -74.4391276 415.65390827 -77.75 419.1875 C-78.38421875 419.86103516 -79.0184375 420.53457031 -79.671875 421.22851562 C-83.54574966 425.35933095 -87.28872726 429.56338812 -90.91650391 433.9128418 C-91.39780762 434.395354 -91.87911133 434.87786621 -92.375 435.375 C-93.035 435.375 -93.695 435.375 -94.375 435.375 C-94.6328125 435.93703125 -94.890625 436.4990625 -95.15625 437.078125 C-96.51669777 439.64204579 -98.10288962 441.82726365 -99.875 444.125 C-100.4834375 444.92421875 -101.091875 445.7234375 -101.71875 446.546875 C-102.2653125 447.15015625 -102.811875 447.7534375 -103.375 448.375 C-104.035 448.375 -104.695 448.375 -105.375 448.375 C-105.375 449.035 -105.375 449.695 -105.375 450.375 C-106.81506959 451.54714966 -108.25755549 452.71651544 -109.71484375 453.8671875 C-111.51080683 455.49834456 -112.76546769 457.18269713 -114.125 459.1875 C-115.23875 460.7653125 -115.23875 460.7653125 -116.375 462.375 C-117.035 462.375 -117.695 462.375 -118.375 462.375 C-118.705 463.365 -119.035 464.355 -119.375 465.375 C-121.01802953 467.06497323 -122.68971312 468.72716394 -124.375 470.375 C-125.95526013 472.23800275 -127.50751782 474.11946136 -129.04296875 476.01953125 C-129.48253906 476.46683594 -129.92210937 476.91414063 -130.375 477.375 C-131.035 477.375 -131.695 477.375 -132.375 477.375 C-132.375 478.035 -132.375 478.695 -132.375 479.375 C-133.46086291 480.49589074 -134.55625239 481.60833562 -135.68359375 482.6875 C-137.83944778 484.83837515 -139.84873658 487.10179629 -141.875 489.375 C-144.17707669 491.9539327 -146.4625489 494.46041356 -148.9375 496.875 C-152.04133473 500.05842024 -154.70604996 503.52657556 -157.45703125 507.015625 C-159.60245749 509.65480514 -161.93866216 512.00450913 -164.375 514.375 C-165.2 515.385625 -166.025 516.39625 -166.875 517.4375 C-169.375 520.375 -169.375 520.375 -171.7734375 522.2421875 C-174.45940495 524.44419685 -176.37653127 526.69636831 -178.5 529.4375 C-182.64333587 534.61666984 -187.07724928 539.17980659 -191.8125 543.81640625 C-194.57135065 546.57105133 -197.10463297 549.45040707 -199.6328125 552.4140625 C-201.6293789 554.66131885 -203.73512946 556.76394927 -205.875 558.875 C-209.23916588 562.19945397 -212.40611697 565.61413723 -215.48828125 569.19921875 C-217.78987404 571.85343652 -220.14080249 574.45936775 -222.5 577.0625 C-223.30695313 577.95324219 -224.11390625 578.84398437 -224.9453125 579.76171875 C-237.79844787 593.58607174 -251.10874682 604.31473593 -270.375 606.375 C-273.48715474 606.43179114 -276.32733461 605.99178942 -279.375 605.375 C-281.169375 605.01921875 -281.169375 605.01921875 -283 604.65625 C-304.35766017 600.06132287 -321.1254195 587.62280192 -334.375 570.375 C-339.2930523 562.57124122 -343.3202283 554.82728303 -342.375 545.375 C-339.2879096 533.54423441 -332.30905642 522.6929146 -323.375 514.375 C-322.715 514.375 -322.055 514.375 -321.375 514.375 C-321.375 513.715 -321.375 513.055 -321.375 512.375 C-319.75131734 510.62923594 -318.1147243 508.99918706 -316.375 507.375 C-315.86517578 506.89869141 -315.35535156 506.42238281 -314.83007812 505.93164062 C-313.09893138 504.32518633 -311.36194807 502.72517869 -309.625 501.125 C-302.83079265 494.84512929 -296.2856938 488.34168762 -289.83496094 481.70996094 C-289.15079102 481.01418945 -288.46662109 480.31841797 -287.76171875 479.6015625 C-286.85232544 478.66691162 -286.85232544 478.66691162 -285.92456055 477.71337891 C-284.375 476.375 -284.375 476.375 -282.375 476.375 C-282.375 475.715 -282.375 475.055 -282.375 474.375 C-280.8359375 472.82421875 -280.8359375 472.82421875 -278.75 471.0625 C-278.02039063 470.43988281 -277.29078125 469.81726563 -276.5390625 469.17578125 C-274.74658689 467.68420859 -272.93897989 466.2151376 -271.125 464.75 C-268.47309513 462.45971852 -266.51443394 460.13555992 -264.375 457.375 C-261.02662669 453.93504725 -257.55167554 450.66584374 -254 447.4375 C-252.9280096 446.45744216 -251.85641284 445.47695363 -250.78515625 444.49609375 C-249.08894286 442.94355271 -247.39264421 441.39111617 -245.69482422 439.84033203 C-236.46764828 431.39291744 -227.56830611 422.65346403 -218.78344727 413.74658203 C-214.37094227 409.28990571 -209.90370305 405.00365125 -205.14135742 400.9230957 C-201.71751372 397.92232267 -198.63250123 394.59447884 -195.4765625 391.31640625 C-193.375 389.375 -193.375 389.375 -191.375 389.375 C-191.0346875 388.5396875 -191.0346875 388.5396875 -190.6875 387.6875 C-187.77109993 382.54908083 -182.85031575 379.10442979 -178.375 375.375 C-176.09027061 373.1307083 -173.84295365 370.85196514 -171.60009766 368.56591797 C-169.63257993 366.56145624 -167.66013661 364.56192314 -165.6875 362.5625 C-165.01138672 361.86962891 -164.33527344 361.17675781 -163.63867188 360.46289062 C-162.99091797 359.80869141 -162.34316406 359.15449219 -161.67578125 358.48046875 C-161.08966064 357.88387451 -160.50354004 357.28728027 -159.8996582 356.67260742 C-158.375 355.375 -158.375 355.375 -156.375 355.375 C-156.375 354.715 -156.375 354.055 -156.375 353.375 C-155.07104492 352.09228516 -155.07104492 352.09228516 -153.16796875 350.5390625 C-146.99892328 345.29245303 -141.38753143 339.49399907 -135.6875 333.75 C-134.56208543 332.61955619 -133.43643588 331.48934628 -132.31054688 330.359375 C-130.24244253 328.28317762 -128.17571208 326.2056341 -126.1105957 324.12646484 C-124.29628482 322.30162918 -122.47844384 320.48029606 -120.65698242 318.66259766 C-119.14708782 317.14898769 -117.65669357 315.61564748 -116.1875 314.0625 C-114.375 312.375 -114.375 312.375 -112.375 312.375 C-112.375 311.715 -112.375 311.055 -112.375 310.375 C-111.715 310.375 -111.055 310.375 -110.375 310.375 C-110.375 309.715 -110.375 309.055 -110.375 308.375 C-108.90625 306.89453125 -108.90625 306.89453125 -106.875 305.1875 C-106.14410156 304.56359375 -105.41320312 303.9396875 -104.66015625 303.296875 C-103.21021416 302.07743653 -101.75975475 300.85861268 -100.30859375 299.640625 C-96.22440394 296.15587597 -92.70031746 292.52451377 -89.23828125 288.42578125 C-86.51574556 285.42927971 -83.47790549 282.84668926 -80.390625 280.234375 C-77.4459227 277.5179442 -75.60860745 275.44959425 -74.75 271.5 C-75.68526081 266.82369593 -78.5847487 265.03279817 -82.375 262.375 C-83.32375 261.818125 -84.2725 261.26125 -85.25 260.6875 C-92.06059533 255.64765946 -99.01387942 247.66940748 -100.4375 239.1875 C-100.60636719 238.21425781 -100.77523437 237.24101562 -100.94921875 236.23828125 C-101.31505655 233.77810595 -101.55236474 231.35233498 -101.75 228.875 C-102.07683579 225.41209288 -102.07683579 225.41209288 -104 223.375 C-107.46605585 221.91560806 -109.61985209 221.88252159 -113.375 222.375 C-117.3491878 224.17003278 -121.00995425 226.53181648 -124.71484375 228.8203125 C-131.53344323 232.68823765 -137.60695082 233.55833919 -145.375 232.375 C-151.77676238 230.27079955 -157.87983991 226.4506609 -162.375 221.375 C-162.375 220.715 -162.375 220.055 -162.375 219.375 C-163.365 219.045 -164.355 218.715 -165.375 218.375 C-166.8828125 216.87890625 -166.8828125 216.87890625 -168.5 214.9375 C-172.01472489 210.77965524 -175.66461384 206.76788293 -179.359375 202.76953125 C-186.67681157 194.07653005 -187.14923205 185.1257983 -186.54833984 174.27294922 C-185.3689304 161.35924636 -168.78437167 149.6986839 -160.1875 141.0625 C-159.71459534 140.58673523 -159.24169067 140.11097046 -158.75445557 139.62078857 C-153.73740073 134.58245387 -148.67336532 129.68632033 -143.27612305 125.05786133 C-139.81513155 121.99421495 -136.61023875 118.67342701 -133.375 115.375 C-128.77883399 110.68906512 -124.11210207 106.19601836 -119.13818359 101.91113281 C-117.06603894 100.10582484 -115.11198635 98.21141679 -113.1875 96.25 C-112.52363281 95.57710938 -111.85976563 94.90421875 -111.17578125 94.2109375 C-110.58152344 93.60507813 -109.98726562 92.99921875 -109.375 92.375 C-100.375 83.375 -100.375 83.375 -98.30078125 81.30859375 C-97.14160359 80.14471354 -95.99044414 78.97264978 -94.85546875 77.78515625 C-92.67172132 75.50904488 -91.43397705 74.39465902 -88.375 73.375 C-88.375 72.715 -88.375 72.055 -88.375 71.375 C-86.6171875 69.89453125 -86.6171875 69.89453125 -84.25 68.1875 C-80.58676247 65.42862423 -77.72519071 62.63382484 -74.8515625 59.0859375 C-72.3527701 56.19051138 -69.50508611 53.5773544 -66.375 51.375 C-65.715 51.375 -65.055 51.375 -64.375 51.375 C-64.12363281 50.79621094 -63.87226562 50.21742187 -63.61328125 49.62109375 C-62.21907086 47.09216323 -60.63709642 45.4406954 -58.5625 43.4375 C-57.56283203 42.46490234 -57.56283203 42.46490234 -56.54296875 41.47265625 C-55.82753906 40.78042969 -55.11210938 40.08820312 -54.375 39.375 C-53.5809375 38.57578125 -52.786875 37.7765625 -51.96875 36.953125 C-49.26058626 34.2612755 -46.4963263 31.64907265 -43.6875 29.0625 C-42.73488281 28.17949219 -41.78226563 27.29648437 -40.80078125 26.38671875 C-38.375 24.375 -38.375 24.375 -36.375 24.375 C-35.98103027 23.48748047 -35.98103027 23.48748047 -35.57910156 22.58203125 C-34.31599505 20.26684819 -33.03199997 18.85367257 -31.109375 17.0625 C-30.14451172 16.16144531 -30.14451172 16.16144531 -29.16015625 15.2421875 C-28.48855469 14.62601563 -27.81695313 14.00984375 -27.125 13.375 C-26.46886719 12.75882813 -25.81273437 12.14265625 -25.13671875 11.5078125 C-17.37046497 4.31283385 -10.85786974 0.1119368 0 0 Z " fill="#FFFFFF" transform="translate(701.375,16.625)"/>
</svg>
